<svg xmlns="http://www.w3.org/2000/svg" viewBox="0 0 24 24"><g><path d="M19.62 18.5a3.75 3.75 0 0 1 0 -7.5h2.26a0.25 0.25 0 0 0 0.24 -0.25v-2.5a2.5 2.5 0 0 0 -2.5 -2.5h-17a2.51 2.51 0 0 0 -2.5 2.5v13a2.51 2.51 0 0 0 2.5 2.5h17a2.5 2.5 0 0 0 2.5 -2.5v-2.5a0.25 0.25 0 0 0 -0.24 -0.25Z" fill="#5279fd" stroke-width="1"></path><path d="M22.62 12.5h-3a2.25 2.25 0 0 0 0 4.5h3a1.51 1.51 0 0 0 1.26 -1.5V14a1.51 1.51 0 0 0 -1.26 -1.5Z" fill="#5279fd" stroke-width="1"></path><path d="M19.81 1.18a1.21 1.21 0 0 0 -0.56 -0.76 1.24 1.24 0 0 0 -0.94 -0.13L5.44 3.76a0.24 0.24 0 0 0 -0.18 0.24 0.25 0.25 0 0 0 0.24 0.22l14.77 0a0.24 0.24 0 0 0 0.19 -0.1 0.23 0.23 0 0 0 0.05 -0.12Z" fill="#5279fd" stroke-width="1"></path></g></svg>