<svg width="22" height="22" viewBox="0 0 22 22" fill="none" xmlns="http://www.w3.org/2000/svg">
    <path d="M11.0001 1.83334C9.79634 1.83334 8.60434 2.07045 7.49219 2.53111C6.38004 2.99178 5.36951 3.66699 4.51831 4.5182C2.79923 6.23728 1.83345 8.56886 1.83345 11C1.82544 13.1167 2.55835 15.1695 3.90512 16.8025L2.07179 18.6358C1.94459 18.7647 1.85843 18.9284 1.82417 19.1063C1.78991 19.2841 1.80909 19.4681 1.87929 19.635C1.95542 19.7999 2.07885 19.9385 2.2339 20.0332C2.38894 20.1279 2.56862 20.1743 2.75012 20.1667H11.0001C13.4313 20.1667 15.7628 19.2009 17.4819 17.4818C19.201 15.7627 20.1668 13.4312 20.1668 11C20.1668 8.56886 19.201 6.23728 17.4819 4.5182C15.7628 2.79911 13.4313 1.83334 11.0001 1.83334ZM11.0001 18.3333H4.95929L5.81179 17.4808C5.98252 17.3091 6.07835 17.0768 6.07835 16.8346C6.07835 16.5924 5.98252 16.3601 5.81179 16.1883C4.61149 14.9894 3.86403 13.4113 3.69675 11.7231C3.52948 10.0348 3.95274 8.34077 4.89441 6.92957C5.83609 5.51838 7.23793 4.47734 8.86109 3.98382C10.4843 3.4903 12.2283 3.57483 13.7962 4.22301C15.364 4.8712 16.6586 6.04293 17.4594 7.53858C18.2601 9.03423 18.5176 10.7613 18.1878 12.4254C17.8581 14.0896 16.9615 15.588 15.6509 16.6652C14.3402 17.7425 12.6967 18.332 11.0001 18.3333Z" fill="rgb(176, 128, 56)"/>
</svg>
