<svg width="25px" height="25px" viewBox="0 0 32 28" fill="none" xmlns="http://www.w3.org/2000/svg">
<path d="M32 9.0438C32 19.2545 17.1729 27.5194 16.5414 27.8607C16.375 27.9522 16.189 28 16 28C15.811 28 15.625 27.9522 15.4586 27.8607C14.8271 27.5194 0 19.2545 0 9.0438C0.00264677 6.64606 0.936658 4.34731 2.59712 2.65185C4.25758 0.956397 6.5089 0.00270255 8.85714 0C11.8071 0 14.39 1.29531 16 3.48478C17.61 1.29531 20.1929 0 23.1429 0C25.4911 0.00270255 27.7424 0.956397 29.4029 2.65185C31.0633 4.34731 31.9974 6.64606 32 9.0438Z" fill="#F99090"/>
</svg>
