<svg width="23" height="23" viewBox="0 0 23 23" fill="none" xmlns="http://www.w3.org/2000/svg">
<path d="M5.75 18.4C5.42417 18.4 5.15104 18.2898 4.93062 18.0694C4.71021 17.849 4.6 17.5758 4.6 17.25V14.95H19.55V4.6H21.85C22.1758 4.6 22.449 4.71021 22.6694 4.93062C22.8898 5.15104 23 5.42417 23 5.75V23L18.4 18.4H5.75ZM0 17.25V1.15C0 0.824167 0.110208 0.551042 0.330625 0.330625C0.551042 0.110208 0.824167 0 1.15 0H16.1C16.4258 0 16.699 0.110208 16.9194 0.330625C17.1398 0.551042 17.25 0.824167 17.25 1.15V11.5C17.25 11.8258 17.1398 12.099 16.9194 12.3194C16.699 12.5398 16.4258 12.65 16.1 12.65H4.6L0 17.25ZM14.95 10.35V2.3H2.3V10.35H14.95Z" fill="current"/>
</svg>
