<svg width="23" height="23" viewBox="0 0 23 23" fill="none" xmlns="http://www.w3.org/2000/svg">
<path d="M4.4275 17.365C5.405 16.6175 6.4975 16.0281 7.705 15.5969C8.9125 15.1656 10.1775 14.95 11.5 14.95C12.8225 14.95 14.0875 15.1656 15.295 15.5969C16.5025 16.0281 17.595 16.6175 18.5725 17.365C19.2433 16.5792 19.7656 15.6879 20.1394 14.6912C20.5131 13.6946 20.7 12.6308 20.7 11.5C20.7 8.95083 19.804 6.78021 18.0119 4.98813C16.2198 3.19604 14.0492 2.3 11.5 2.3C8.95083 2.3 6.78021 3.19604 4.98813 4.98813C3.19604 6.78021 2.3 8.95083 2.3 11.5C2.3 12.6308 2.48688 13.6946 2.86063 14.6912C3.23438 15.6879 3.75667 16.5792 4.4275 17.365ZM11.5 12.65C10.3692 12.65 9.41563 12.2619 8.63937 11.4856C7.86313 10.7094 7.475 9.75583 7.475 8.625C7.475 7.49417 7.86313 6.54063 8.63937 5.76438C9.41563 4.98813 10.3692 4.6 11.5 4.6C12.6308 4.6 13.5844 4.98813 14.3606 5.76438C15.1369 6.54063 15.525 7.49417 15.525 8.625C15.525 9.75583 15.1369 10.7094 14.3606 11.4856C13.5844 12.2619 12.6308 12.65 11.5 12.65ZM11.5 23C9.90917 23 8.41417 22.6981 7.015 22.0944C5.61583 21.4906 4.39875 20.6713 3.36375 19.6362C2.32875 18.6012 1.50937 17.3842 0.905625 15.985C0.301875 14.5858 0 13.0908 0 11.5C0 9.90917 0.301875 8.41417 0.905625 7.015C1.50937 5.61583 2.32875 4.39875 3.36375 3.36375C4.39875 2.32875 5.61583 1.50937 7.015 0.905625C8.41417 0.301875 9.90917 0 11.5 0C13.0908 0 14.5858 0.301875 15.985 0.905625C17.3842 1.50937 18.6012 2.32875 19.6362 3.36375C20.6713 4.39875 21.4906 5.61583 22.0944 7.015C22.6981 8.41417 23 9.90917 23 11.5C23 13.0908 22.6981 14.5858 22.0944 15.985C21.4906 17.3842 20.6713 18.6012 19.6362 19.6362C18.6012 20.6713 17.3842 21.4906 15.985 22.0944C14.5858 22.6981 13.0908 23 11.5 23ZM11.5 20.7C12.5158 20.7 13.4742 20.5515 14.375 20.2544C15.2758 19.9573 16.1 19.5308 16.8475 18.975C16.1 18.4192 15.2758 17.9927 14.375 17.6956C13.4742 17.3985 12.5158 17.25 11.5 17.25C10.4842 17.25 9.52583 17.3985 8.625 17.6956C7.72417 17.9927 6.9 18.4192 6.1525 18.975C6.9 19.5308 7.72417 19.9573 8.625 20.2544C9.52583 20.5515 10.4842 20.7 11.5 20.7ZM11.5 10.35C11.9983 10.35 12.4104 10.1871 12.7362 9.86125C13.0621 9.53542 13.225 9.12333 13.225 8.625C13.225 8.12667 13.0621 7.71458 12.7362 7.38875C12.4104 7.06292 11.9983 6.9 11.5 6.9C11.0017 6.9 10.5896 7.06292 10.2638 7.38875C9.93792 7.71458 9.775 8.12667 9.775 8.625C9.775 9.12333 9.93792 9.53542 10.2638 9.86125C10.5896 10.1871 11.0017 10.35 11.5 10.35Z" fill="#9396A6"/>
</svg>
